<?xml version="1.0" encoding="UTF-8"?>
<svg xmlns="http://www.w3.org/2000/svg" width="900" height="540" viewBox="0 0 900 540">
  <rect width="100%" height="100%" fill="white" />
  <text x="450" y="30" text-anchor="middle" font-family="system-ui, sans-serif" font-size="14" fill="#111" font-weight="600">Learning curve — held-out n=5, cycles=5, model=anthropic/claude-sonnet-4.6</text>
  <line x1="70" y1="480" x2="680" y2="480" stroke="#e5e5e5" stroke-width="1" /><text x="62" y="484" font-family="system-ui, sans-serif" font-size="11" fill="#666" text-anchor="end">0</text><line x1="70" y1="396" x2="680" y2="396" stroke="#e5e5e5" stroke-width="1" /><text x="62" y="400" font-family="system-ui, sans-serif" font-size="11" fill="#666" text-anchor="end">20</text><line x1="70" y1="312" x2="680" y2="312" stroke="#e5e5e5" stroke-width="1" /><text x="62" y="316" font-family="system-ui, sans-serif" font-size="11" fill="#666" text-anchor="end">40</text><line x1="70" y1="228" x2="680" y2="228" stroke="#e5e5e5" stroke-width="1" /><text x="62" y="232" font-family="system-ui, sans-serif" font-size="11" fill="#666" text-anchor="end">60</text><line x1="70" y1="144" x2="680" y2="144" stroke="#e5e5e5" stroke-width="1" /><text x="62" y="148" font-family="system-ui, sans-serif" font-size="11" fill="#666" text-anchor="end">80</text><line x1="70" y1="60" x2="680" y2="60" stroke="#e5e5e5" stroke-width="1" /><text x="62" y="64" font-family="system-ui, sans-serif" font-size="11" fill="#666" text-anchor="end">100</text>
  <line x1="70" y1="60" x2="70" y2="480" stroke="#f0f0f0" stroke-width="1" /><text x="70" y="498" font-family="system-ui, sans-serif" font-size="11" fill="#666" text-anchor="middle">0</text><line x1="192" y1="60" x2="192" y2="480" stroke="#f0f0f0" stroke-width="1" /><text x="192" y="498" font-family="system-ui, sans-serif" font-size="11" fill="#666" text-anchor="middle">1</text><line x1="314" y1="60" x2="314" y2="480" stroke="#f0f0f0" stroke-width="1" /><text x="314" y="498" font-family="system-ui, sans-serif" font-size="11" fill="#666" text-anchor="middle">2</text><line x1="436" y1="60" x2="436" y2="480" stroke="#f0f0f0" stroke-width="1" /><text x="436" y="498" font-family="system-ui, sans-serif" font-size="11" fill="#666" text-anchor="middle">3</text><line x1="558" y1="60" x2="558" y2="480" stroke="#f0f0f0" stroke-width="1" /><text x="558" y="498" font-family="system-ui, sans-serif" font-size="11" fill="#666" text-anchor="middle">4</text><line x1="680" y1="60" x2="680" y2="480" stroke="#f0f0f0" stroke-width="1" /><text x="680" y="498" font-family="system-ui, sans-serif" font-size="11" fill="#666" text-anchor="middle">5</text>
  <rect x="70" y="60" width="610" height="420" fill="none" stroke="#999" stroke-width="1" />
  <polyline fill="none" stroke="#1f77b4" stroke-width="3" points="70,186.83999999999997 192,165 314,165.83999999999997 436,163.31999999999994 558,152.39999999999998 680,164.16000000000003" /><polyline fill="none" stroke="#ff7f0e" stroke-width="1.5" points="70,180.204 192,182.808 314,184.06799999999998 436,179.19599999999997 558,179.53200000000004 680,178.608" /><polyline fill="none" stroke="#2ca02c" stroke-width="1.5" points="70,256.56 192,200.28000000000003 314,200.28000000000003 436,200.28000000000003 558,171.71999999999997 680,200.28000000000003" /><polyline fill="none" stroke="#d62728" stroke-width="1.5" points="70,60 192,60 314,60 436,60 558,60 680,60" />
  <circle cx="70" cy="186.83999999999997" r="4" fill="#1f77b4" /><circle cx="192" cy="165" r="4" fill="#1f77b4" /><circle cx="314" cy="165.83999999999997" r="4" fill="#1f77b4" /><circle cx="436" cy="163.31999999999994" r="4" fill="#1f77b4" /><circle cx="558" cy="152.39999999999998" r="4" fill="#1f77b4" /><circle cx="680" cy="164.16000000000003" r="4" fill="#1f77b4" /><circle cx="70" cy="180.204" r="2.5" fill="#ff7f0e" /><circle cx="192" cy="182.808" r="2.5" fill="#ff7f0e" /><circle cx="314" cy="184.06799999999998" r="2.5" fill="#ff7f0e" /><circle cx="436" cy="179.19599999999997" r="2.5" fill="#ff7f0e" /><circle cx="558" cy="179.53200000000004" r="2.5" fill="#ff7f0e" /><circle cx="680" cy="178.608" r="2.5" fill="#ff7f0e" /><circle cx="70" cy="256.56" r="2.5" fill="#2ca02c" /><circle cx="192" cy="200.28000000000003" r="2.5" fill="#2ca02c" /><circle cx="314" cy="200.28000000000003" r="2.5" fill="#2ca02c" /><circle cx="436" cy="200.28000000000003" r="2.5" fill="#2ca02c" /><circle cx="558" cy="171.71999999999997" r="2.5" fill="#2ca02c" /><circle cx="680" cy="200.28000000000003" r="2.5" fill="#2ca02c" /><circle cx="70" cy="60" r="2.5" fill="#d62728" /><circle cx="192" cy="60" r="2.5" fill="#d62728" /><circle cx="314" cy="60" r="2.5" fill="#d62728" /><circle cx="436" cy="60" r="2.5" fill="#d62728" /><circle cx="558" cy="60" r="2.5" fill="#d62728" /><circle cx="680" cy="60" r="2.5" fill="#d62728" />
  <g transform="translate(700, 84)"><line x1="0" y1="6" x2="22" y2="6" stroke="#1f77b4" stroke-width="3" /><text x="30" y="10" font-family="system-ui, sans-serif" font-size="12" fill="#222">Composite</text></g><g transform="translate(700, 110)"><line x1="0" y1="6" x2="22" y2="6" stroke="#ff7f0e" stroke-width="1.5" /><text x="30" y="10" font-family="system-ui, sans-serif" font-size="12" fill="#222">Readability (Fernández Huerta)</text></g><g transform="translate(700, 136)"><line x1="0" y1="6" x2="22" y2="6" stroke="#2ca02c" stroke-width="1.5" /><text x="30" y="10" font-family="system-ui, sans-serif" font-size="12" fill="#222">Accuracy</text></g><g transform="translate(700, 162)"><line x1="0" y1="6" x2="22" y2="6" stroke="#d62728" stroke-width="1.5" /><text x="30" y="10" font-family="system-ui, sans-serif" font-size="12" fill="#222">Tone</text></g>
  <text x="375" y="522" text-anchor="middle" font-family="system-ui, sans-serif" font-size="12" fill="#222">Evolution cycle</text>
  <text transform="translate(20, 270) rotate(-90)" text-anchor="middle" font-family="system-ui, sans-serif" font-size="12" fill="#222">Mean score (0–100)</text>
</svg>
